<svg width="131" height="47" viewBox="0 0 131 47" fill="none" xmlns="http://www.w3.org/2000/svg">
<path d="M65.8993 42.5746C65.6524 42.3154 65.4117 42.1302 65.1771 42.0192C64.9303 41.9204 64.6525 41.871 64.3439 41.871C63.6773 41.871 63.1218 42.1117 62.6775 42.5932C62.3071 43.0252 62.122 43.5375 62.122 44.13C62.122 44.8213 62.3627 45.3891 62.8441 45.8335C63.2638 46.2162 63.7637 46.4075 64.3439 46.4075C64.6525 46.4075 64.9303 46.352 65.1771 46.2409C65.4117 46.1298 65.6586 45.9384 65.9178 45.6669L66.3622 46.0927C66.0289 46.4137 65.7079 46.642 65.3993 46.7778C65.0907 46.926 64.7389 47 64.3439 47C63.8255 47 63.344 46.8704 62.8997 46.6112C62.4676 46.3643 62.1281 46.0248 61.8813 45.5928C61.622 45.1361 61.4924 44.6485 61.4924 44.13C61.4924 43.6116 61.622 43.1301 61.8813 42.6857C62.1281 42.2537 62.4676 41.9142 62.8997 41.6674C63.344 41.4081 63.8255 41.2785 64.3439 41.2785C64.7266 41.2785 65.0722 41.3464 65.3808 41.4822C65.6894 41.618 66.0042 41.8463 66.3252 42.1673L65.8993 42.5746Z" fill="#FEFEFE"/>
<path fill-rule="evenodd" clip-rule="evenodd" d="M66.5658 44.1299C66.5658 43.6238 66.6955 43.1485 66.9547 42.7041C67.2016 42.2721 67.5349 41.9265 67.9546 41.6672C68.3989 41.408 68.8742 41.2784 69.3803 41.2784C69.8864 41.2784 70.3555 41.408 70.7875 41.6672C71.2196 41.9265 71.559 42.2721 71.8059 42.7041C72.0652 43.1485 72.1948 43.6238 72.1948 44.1299C72.1948 44.6483 72.0652 45.1298 71.8059 45.5741C71.559 46.0062 71.2196 46.3457 70.7875 46.5925C70.3555 46.8641 69.8864 46.9999 69.3803 46.9999C68.8742 46.9999 68.3989 46.8641 67.9546 46.5925C67.5349 46.3457 67.2016 46.0062 66.9547 45.5741C66.6955 45.1298 66.5658 44.6483 66.5658 44.1299ZM67.1769 44.1299C67.1769 44.5496 67.2818 44.9384 67.4917 45.2964C67.6892 45.6297 67.9484 45.8951 68.2693 46.0926C68.615 46.3024 68.9853 46.4074 69.3803 46.4074C69.7753 46.4074 70.1395 46.3024 70.4728 46.0926C70.8061 45.8951 71.0715 45.6235 71.269 45.2779C71.4665 44.9323 71.5652 44.5496 71.5652 44.1299C71.5652 43.451 71.3245 42.8893 70.8431 42.4449C70.4234 42.0622 69.9358 41.8709 69.3803 41.8709C68.9853 41.8709 68.615 41.9697 68.2693 42.1672C67.936 42.377 67.6768 42.6486 67.4917 42.9819C67.2818 43.3399 67.1769 43.7225 67.1769 44.1299Z" fill="#FEFEFE"/>
<path d="M72.9355 44.0374H74.5649V44.5928H72.9355V44.0374Z" fill="#FEFEFE"/>
<path d="M75.6758 41.371L77.0275 46.0001L78.3422 41.371H78.8976L80.1938 46.0001L81.564 41.371H82.1935L80.5086 46.8889H80.1938H79.879L78.6014 42.4265L77.3423 46.8889H77.0275H76.7127L75.0278 41.371H75.6758Z" fill="#FEFEFE"/>
<path fill-rule="evenodd" clip-rule="evenodd" d="M82.1936 44.1299C82.1936 43.6238 82.3232 43.1485 82.5824 42.7041C82.8293 42.2721 83.1626 41.9265 83.5823 41.6672C84.0143 41.408 84.4896 41.2784 85.008 41.2784C85.5018 41.2784 85.9709 41.408 86.4153 41.6672C86.835 41.9265 87.1744 42.2721 87.4336 42.7041C87.6929 43.1485 87.8225 43.6238 87.8225 44.1299C87.8225 44.6483 87.6929 45.1298 87.4336 45.5741C87.1744 46.0062 86.835 46.3457 86.4153 46.5925C85.9709 46.8641 85.5018 46.9999 85.008 46.9999C84.5019 46.9999 84.0267 46.8641 83.5823 46.5925C83.1626 46.3457 82.8293 46.0062 82.5824 45.5741C82.3232 45.1298 82.1936 44.6483 82.1936 44.1299ZM82.8046 44.1299C82.8046 44.5496 82.9095 44.9384 83.1194 45.2964C83.3045 45.6297 83.5637 45.8951 83.897 46.0926C84.2303 46.3024 84.6007 46.4074 85.008 46.4074C85.403 46.4074 85.7672 46.3024 86.1005 46.0926C86.4338 45.8951 86.693 45.6235 86.8782 45.2779C87.088 44.9323 87.1929 44.5496 87.1929 44.1299C87.1929 43.451 86.9522 42.8893 86.4708 42.4449C86.0511 42.0622 85.5635 41.8709 85.008 41.8709C84.6007 41.8709 84.2303 41.9697 83.897 42.1672C83.5637 42.377 83.2984 42.6486 83.1008 42.9819C82.9033 43.3399 82.8046 43.7225 82.8046 44.1299Z" fill="#FEFEFE"/>
<path fill-rule="evenodd" clip-rule="evenodd" d="M90.637 44.5003L91.9516 46.8889H91.2665L90.0259 44.6299C89.8284 44.6546 89.668 44.6669 89.5445 44.6669H89.0261V46.8889H88.415V41.371H89.5445C89.9025 41.371 90.1988 41.4081 90.4333 41.4821C90.6678 41.5439 90.8653 41.6488 91.0258 41.7969C91.1986 41.945 91.3344 42.1302 91.4332 42.3524C91.5319 42.5746 91.5813 42.803 91.5813 43.0375C91.5813 43.3955 91.4887 43.7103 91.3035 43.9818C91.1307 44.204 90.9085 44.3768 90.637 44.5003ZM89.0261 44.0929H89.6186C90.0877 44.0929 90.4271 44.0065 90.637 43.8337C90.8592 43.6485 90.9703 43.3831 90.9703 43.0375C90.9703 42.6919 90.8592 42.4203 90.637 42.2228C90.4271 42.0376 90.0877 41.945 89.6186 41.945H89.0261V44.0929Z" fill="#FEFEFE"/>
<path d="M94.2476 43.667L96.3955 46.8889H95.6734L93.8403 44.1114L93.0255 45.0002V46.8889H92.4145V41.371H93.0255V44.204L95.5993 41.371H96.3399L94.2476 43.667Z" fill="#FEFEFE"/>
<path d="M97.3028 41.371V46.8889H96.6918V41.371H97.3028Z" fill="#FEFEFE"/>
<path d="M98.2286 46.8889V41.371H98.8026L102.154 45.889V41.371H102.765V46.8889H102.191L98.8397 42.3894V46.8889H98.2286Z" fill="#FEFEFE"/>
<path d="M106.413 44.0558H108.69V44.3521C108.69 45.2038 108.431 45.8704 107.913 46.3518C107.481 46.7839 106.919 46.9999 106.228 46.9999C105.709 46.9999 105.228 46.8703 104.783 46.6111C104.351 46.3642 104.012 46.0247 103.765 45.5927C103.506 45.1483 103.376 44.6668 103.376 44.1484C103.376 43.6176 103.506 43.13 103.765 42.6856C104.012 42.2536 104.345 41.9141 104.765 41.6672C105.209 41.408 105.691 41.2784 106.209 41.2784C106.604 41.2784 106.95 41.3463 107.246 41.4821C107.555 41.6179 107.869 41.8462 108.19 42.1672L107.764 42.5745C107.518 42.3153 107.277 42.1301 107.042 42.019C106.795 41.9203 106.518 41.8709 106.209 41.8709C105.53 41.8709 104.981 42.1116 104.561 42.593C104.178 43.0251 103.987 43.5435 103.987 44.1484C103.987 44.8273 104.228 45.389 104.709 45.8334C105.129 46.216 105.629 46.4074 106.209 46.4074C106.777 46.4074 107.234 46.2222 107.579 45.8519C107.876 45.5309 108.03 45.1174 108.042 44.6113H106.413V44.0558Z" fill="#FEFEFE"/>
<path d="M113.93 42.1486L113.449 42.4634C113.177 42.0561 112.844 41.8524 112.449 41.8524C112.14 41.8524 111.887 41.9511 111.69 42.1486C111.517 42.3215 111.431 42.5313 111.431 42.7782C111.431 43.1485 111.696 43.4386 112.227 43.6485L112.782 43.8521C113.251 44.0373 113.591 44.2595 113.801 44.5187C113.974 44.7409 114.06 45.0125 114.06 45.3334C114.06 45.8395 113.869 46.2531 113.486 46.574C113.165 46.8579 112.776 46.9999 112.319 46.9999C111.85 46.9999 111.462 46.8579 111.153 46.574C110.894 46.3271 110.715 45.9938 110.616 45.5741L111.208 45.4075C111.381 46.0741 111.758 46.4074 112.338 46.4074C112.671 46.4074 112.943 46.2901 113.153 46.0556C113.35 45.8581 113.449 45.6174 113.449 45.3334C113.449 45.1112 113.375 44.9261 113.227 44.778C113.079 44.6298 112.832 44.4879 112.486 44.3521L111.968 44.1484C111.202 43.8521 110.82 43.3954 110.82 42.7782C110.82 42.3215 110.999 41.945 111.357 41.6487C111.653 41.4018 112.017 41.2784 112.449 41.2784C113.079 41.2784 113.572 41.5685 113.93 42.1486Z" fill="#FEFEFE"/>
<path fill-rule="evenodd" clip-rule="evenodd" d="M115.338 44.6669V46.8889H114.708V41.371H115.837C116.183 41.371 116.461 41.4019 116.671 41.4636C116.881 41.5253 117.066 41.6303 117.226 41.7784C117.572 42.0993 117.745 42.5129 117.745 43.019C117.745 43.5251 117.572 43.9324 117.226 44.241C117.066 44.3892 116.881 44.4941 116.671 44.5558C116.461 44.6299 116.183 44.6669 115.837 44.6669H115.338ZM115.338 44.0929H115.93C116.35 44.0929 116.658 44.0003 116.856 43.8152C117.053 43.6177 117.152 43.3523 117.152 43.019C117.152 42.6733 117.053 42.4079 116.856 42.2228C116.658 42.0376 116.35 41.945 115.93 41.945H115.338V44.0929Z" fill="#FEFEFE"/>
<path fill-rule="evenodd" clip-rule="evenodd" d="M118.782 45.3335L118.189 46.8889H117.56L119.689 41.371H120.448L122.577 46.8889H121.929L121.337 45.3335H118.782ZM119.004 44.7595H121.115L120.059 41.9636L119.004 44.7595Z" fill="#FEFEFE"/>
<path d="M126.966 42.5745C126.719 42.3153 126.478 42.1301 126.244 42.019C125.997 41.9203 125.719 41.8709 125.41 41.8709C124.744 41.8709 124.188 42.1116 123.744 42.593C123.374 43.0251 123.188 43.5374 123.188 44.1299C123.188 44.8212 123.429 45.389 123.911 45.8334C124.33 46.216 124.83 46.4074 125.41 46.4074C125.719 46.4074 125.997 46.3518 126.244 46.2407C126.491 46.1296 126.744 45.9383 127.003 45.6667L127.429 46.0926C127.095 46.4135 126.774 46.6419 126.466 46.7777C126.157 46.9258 125.805 46.9999 125.41 46.9999C124.892 46.9999 124.411 46.8703 123.966 46.6111C123.546 46.3642 123.207 46.0247 122.948 45.5927C122.689 45.1359 122.559 44.6483 122.559 44.1299C122.559 43.6114 122.689 43.13 122.948 42.6856C123.207 42.2536 123.546 41.9141 123.966 41.6672C124.411 41.408 124.892 41.2784 125.41 41.2784C125.793 41.2784 126.139 41.3463 126.447 41.4821C126.756 41.6179 127.071 41.8462 127.392 42.1672L126.966 42.5745Z" fill="#FEFEFE"/>
<path d="M130.78 41.945H128.577V43.8152H130.539V44.3892H128.577V46.3149H130.873V46.8889H127.947V41.371H130.78V41.945Z" fill="#FEFEFE"/>
<path d="M4.29578 36.8902V5.9866H10.869V36.8902H4.29578Z" fill="#F39E51"/>
<path d="M14.2946 36.8902V12.0044H33.3107C34.4464 12.0044 35.4895 12.2883 36.44 12.8561C37.3781 13.424 38.1311 14.1831 38.699 15.1336C39.2545 16.0718 39.5322 17.1025 39.5322 18.2258V36.8902H32.9589V18.5591H20.8678V36.8902H14.2946Z" fill="#F39E51"/>
<path fill-rule="evenodd" clip-rule="evenodd" d="M45.9203 36.0385C44.9822 35.4583 44.2292 34.6991 43.6613 33.761C43.1058 32.8105 42.8281 31.7797 42.8281 30.6687V18.2259C42.8281 17.1025 43.1058 16.0718 43.6613 15.1336C44.2292 14.1831 44.9822 13.424 45.9203 12.8561C46.8708 12.2883 47.9139 12.0044 49.0495 12.0044H61.548V3.83875H68.1027V36.8902H49.0495C47.9139 36.8902 46.8708 36.6063 45.9203 36.0385ZM61.548 30.3169V18.5591H49.4384V30.3169H61.548Z" fill="#FEFEFE"/>
<path d="M100.08 36.8902V34.7423L108.653 24.2251L100.08 14.1523V12.0044H106.82L112.912 19.2072L118.967 12.0044H125.744V14.1523L117.152 24.2251L125.744 34.7423V36.8902H119.004L112.912 29.4282L106.82 36.8902H100.08Z" fill="#FEFEFE"/>
<path fill-rule="evenodd" clip-rule="evenodd" d="M130.039 39.2602C127.398 39.3219 124.744 39.3775 122.077 39.4268L114.078 39.5565C108.733 39.6305 103.37 39.6984 97.9878 39.7601C87.2299 39.8898 76.435 39.9638 65.603 40.0194C60.1839 40.0441 54.7586 40.0441 49.3272 40.0194C43.8834 39.9823 38.4582 39.9268 33.0329 39.8527C27.5892 39.7787 22.1824 39.6861 16.7572 39.6305C11.3504 39.5565 5.94371 39.5194 0.555487 39.5009H0.240711V39.2047C0.259228 36.0199 0.259228 32.8351 0.240711 29.6688V24.8916L0.203678 20.1329C0.17899 16.9482 0.154301 13.7695 0.129613 10.5971L0.0185159 1.06123L0 0.524264H0.555487L16.7201 0.320585C22.1145 0.258864 27.5089 0.20949 32.9033 0.172457C43.6798 0.116909 54.4747 0.0613565 65.2512 0.0243241C76.0461 -0.0127084 86.8226 -0.0127061 97.6175 0.0613588C108.394 0.116907 119.189 0.190971 129.965 0.320585L130.706 0.339102V1.06123C130.669 4.28306 130.626 7.49871 130.576 10.7082L130.502 15.5224L130.41 20.3181L130.039 39.2602ZM129.891 39.1121L129.539 19.9293L129.447 15.1891L129.373 10.4675C129.323 7.5666 129.28 4.67807 129.243 1.80188C118.701 1.91298 108.159 1.99939 97.6175 2.06111C86.8226 2.11666 76.0461 2.13518 65.2512 2.09814C54.4747 2.06111 43.6798 1.98705 32.9033 1.9315C27.5089 1.90681 22.1145 1.8636 16.7201 1.80188L1.07394 1.5982L0.962843 10.5786C0.938155 13.7634 0.913468 16.942 0.888779 20.1144L0.851747 24.8916V29.6503C0.833231 32.724 0.833231 35.7977 0.851747 38.8899C6.12887 38.8714 11.406 38.8158 16.6831 38.7603C22.0528 38.7047 27.4225 38.6121 32.7737 38.5381C38.1434 38.464 43.4761 38.4085 48.8458 38.3714C54.1908 38.3467 59.5482 38.3467 64.9179 38.3714C75.6573 38.4085 86.4152 38.501 97.2287 38.6121C102.635 38.6862 108.061 38.7603 113.504 38.8343L121.67 38.9639C124.41 39.0133 127.151 39.0627 129.891 39.1121ZM129.243 1.80188C129.49 1.78954 129.731 1.78337 129.965 1.78337L129.243 1.04272C129.243 1.2896 129.243 1.54266 129.243 1.80188ZM1.07394 1.5982V1.04272L0.536969 1.57969L1.07394 1.5982ZM0.851747 38.8899C0.752994 38.8899 0.65424 38.8899 0.555487 38.8899L0.851747 39.2047C0.851747 39.0936 0.851747 38.9886 0.851747 38.8899Z" fill="#F39E51"/>
<path d="M96.5622 17.6147H80.0086C79.0458 17.6147 78.2681 16.837 78.2681 15.8742V13.7634C78.2681 12.8005 79.0458 12.0228 80.0086 12.0228H96.5622C97.5065 12.0228 98.3027 12.8005 98.3027 13.7634V15.8742C98.3027 16.837 97.5065 17.6147 96.5622 17.6147Z" fill="#FEFEFE"/>
<path d="M74.2316 17.6147H73.1391C71.8985 17.6147 70.8801 16.6149 70.8801 15.3743V14.2818C70.8801 13.0227 71.8985 12.0228 73.1391 12.0228H74.2316C75.4722 12.0228 76.4905 13.0227 76.4905 14.2818V15.3743C76.4905 16.6149 75.4722 17.6147 74.2316 17.6147Z" fill="#FEFEFE"/>
<path d="M74.2316 27.4654H73.1391C71.8985 27.4654 70.8801 26.447 70.8801 25.2064V24.1139C70.8801 22.8733 71.8985 21.8549 73.1391 21.8549H74.2316C75.4722 21.8549 76.4905 22.8733 76.4905 24.1139V25.2064C76.4905 26.447 75.4722 27.4654 74.2316 27.4654Z" fill="#FEFEFE"/>
<path d="M74.2316 36.8901H73.1391C71.8985 36.8901 70.8801 35.8902 70.8801 34.6311V33.5571C70.8801 32.298 71.8985 31.2982 73.1391 31.2982H74.2316C75.4722 31.2982 76.4905 32.298 76.4905 33.5571V34.6311C76.4905 35.8902 75.4722 36.8901 74.2316 36.8901Z" fill="#FEFEFE"/>
<path d="M96.5622 27.4654H80.0086C79.0458 27.4654 78.2681 26.6692 78.2681 25.7063V23.5955C78.2681 22.6326 79.0458 21.8549 80.0086 21.8549H96.5622C97.5065 21.8549 98.3027 22.6326 98.3027 23.5955V25.7063C98.3027 26.6692 97.5065 27.4654 96.5622 27.4654Z" fill="#FEFEFE"/>
<path d="M96.5622 36.8901H80.0086C79.0458 36.8901 78.2681 36.1124 78.2681 35.1495V33.0387C78.2681 32.0758 79.0458 31.2982 80.0086 31.2982H96.5622C97.5065 31.2982 98.3027 32.0758 98.3027 33.0387V35.1495C98.3027 36.1124 97.5065 36.8901 96.5622 36.8901Z" fill="#FEFEFE"/>
</svg>
